HIERARCHY
ROOT Hips
{
	OFFSET 0.000000 0.000000 0.000000
	CHANNELS 6 Xposition Yposition Zposition Xrotation Yrotation Zrotation
	JOINT LeftUpLeg_virtual
	{
		OFFSET 0.000000 0.000000 0.000000
		CHANNELS 3 Xrotation Yrotation Zrotation
		JOINT LeftUpLeg
		{
			OFFSET 15.427100 -6.655098 0.678600
			CHANNELS 3 Xrotation Yrotation Zrotation
			JOINT LeftLeg
			{
				OFFSET 4.081073 -39.591068 13.024000
				CHANNELS 3 Xrotation Yrotation Zrotation
				JOINT LeftFoot
				{
					OFFSET -4.081074 -37.707932 -15.979700
					CHANNELS 3 Xrotation Yrotation Zrotation
					JOINT LeftToeBase
					{
						OFFSET 5.346399 -15.068900 20.645000
						CHANNELS 3 Xrotation Yrotation Zrotation
						JOINT LeftToe_End
						{
							OFFSET 2.754700 0.931300 11.300900
							CHANNELS 3 Xrotation Yrotation Zrotation
							End Site
							{
								OFFSET 0 0 0
							}
						}
					}
				}
			}
		}
	}
	JOINT RightUpLeg_virtual
	{
		OFFSET 0.000000 0.000000 0.000000
		CHANNELS 3 Xrotation Yrotation Zrotation
		JOINT RightUpLeg
		{
			OFFSET -15.569500 -6.655098 0.678600
			CHANNELS 3 Xrotation Yrotation Zrotation
			JOINT RightLeg
			{
				OFFSET -4.081825 -39.591045 13.023800
				CHANNELS 3 Xrotation Yrotation Zrotation
				JOINT RightFoot
				{
					OFFSET 4.081824 -37.707954 -15.979600
					CHANNELS 3 Xrotation Yrotation Zrotation
					JOINT RightToeBase
					{
						OFFSET -5.346400 -15.068900 20.645000
						CHANNELS 3 Xrotation Yrotation Zrotation
						JOINT RightToe_End
						{
							OFFSET -2.754700 0.931300 11.300900
							CHANNELS 3 Xrotation Yrotation Zrotation
							End Site
							{
								OFFSET 0 0 0
							}
						}
					}
				}
			}
		}
	}
	JOINT Spine_virtual
	{
		OFFSET 0.000000 0.000000 0.000000
		CHANNELS 3 Xrotation Yrotation Zrotation
		JOINT Spine
		{
			OFFSET -0.279200 12.230698 -2.892100
			CHANNELS 3 Xrotation Yrotation Zrotation
			JOINT Spine1
			{
				OFFSET -0.232667 10.192268 -1.242267
				CHANNELS 3 Xrotation Yrotation Zrotation
				JOINT Spine1_split
				{
					OFFSET -0.232667 10.192268 -1.242267
					CHANNELS 3 Xrotation Yrotation Zrotation
					JOINT Spine2
					{
						OFFSET -0.232667 10.192268 -1.242267
						CHANNELS 3 Xrotation Yrotation Zrotation
						JOINT Neck_virtual
						{
							OFFSET 0.000000 0.000000 0.000000
							CHANNELS 3 Xrotation Yrotation Zrotation
							JOINT Neck
							{
								OFFSET -0.418800 17.814194 8.416900
								CHANNELS 3 Xrotation Yrotation Zrotation
								JOINT Head
								{
									OFFSET 0.000000 7.031097 3.806800
									CHANNELS 3 Xrotation Yrotation Zrotation
									JOINT HeadTop_End
									{
										OFFSET 0.000000 24.646606 12.978600
										CHANNELS 3 Xrotation Yrotation Zrotation
										End Site
										{
											OFFSET 0 0 0
										}
									}
								}
							}
						}
						JOINT LeftShoulder_virtual
						{
							OFFSET 0.000000 0.000000 0.000000
							CHANNELS 3 Xrotation Yrotation Zrotation
							JOINT LeftShoulder
							{
								OFFSET 8.476499 7.247704 -3.868750
								CHANNELS 3 Xrotation Yrotation Zrotation
								JOINT LeftShoulder_split
								{
									OFFSET 8.476499 7.247704 -3.868750
									CHANNELS 3 Xrotation Yrotation Zrotation
									JOINT LeftArm
									{
										OFFSET 9.308998 -2.777710 0.208600
										CHANNELS 3 Xrotation Yrotation Zrotation
										JOINT LeftForeArm
										{
											OFFSET 29.972298 0.000000 0.000000
											CHANNELS 3 Xrotation Yrotation Zrotation
											JOINT LeftHand
											{
												OFFSET 26.026505 0.000000 0.000000
												CHANNELS 3 Xrotation Yrotation Zrotation
												End Site
												{
													OFFSET 0 0 0
												}
											}
										}
									}
								}
							}
						}
						JOINT RightShoulder_virtual
						{
							OFFSET 0.000000 0.000000 0.000000
							CHANNELS 3 Xrotation Yrotation Zrotation
							JOINT RightShoulder
							{
								OFFSET -7.570500 7.247704 -3.868750
								CHANNELS 3 Xrotation Yrotation Zrotation
								JOINT RightShoulder_split
								{
									OFFSET -7.570500 7.247704 -3.868750
									CHANNELS 3 Xrotation Yrotation Zrotation
									JOINT RightArm
									{
										OFFSET -9.308998 -2.777710 0.208500
										CHANNELS 3 Xrotation Yrotation Zrotation
										JOINT RightForeArm
										{
											OFFSET -29.972300 0.000000 0.000000
											CHANNELS 3 Xrotation Yrotation Zrotation
											JOINT RightHand
											{
												OFFSET -26.026505 0.000000 0.000000
												CHANNELS 3 Xrotation Yrotation Zrotation
												End Site
												{
													OFFSET 0 0 0
												}
											}
										}
									}
								}
							}
						}
					}
				}
			}
		}
	}
}
MOTION
Frames: 9
Frame Time: 0.03333333
-1.481408 87.902451 3.057182 0.000000 0.000000 0.000000 32.374987 -2.385654 -5.717993 -61.682359 8.276243 -2.373559 65.263810 -8.142123 4.318877 5.444752 -2.463246 8.378847 -18.291726 -2.761543 2.421235 0.000000 0.000000 0.000000 29.704926 -3.891721 -5.212566 -21.181006 -15.084951 5.888282 30.120714 -3.697759 -0.052306 -26.831980 3.071787 6.410921 -9.130821 -0.746997 1.424103 0.000000 0.000000 0.000000 29.989609 -1.535034 -5.420340 3.243208 3.365523 -0.452357 -0.173569 1.607729 -0.435838 0.268976 -0.072071 -0.080446 0.000000 0.000000 0.000000 -0.109308 1.555514 -0.231566 -11.465568 0.063586 3.001703 -10.645228 3.652050 -2.415813 0.000000 0.000000 0.000000 -1.019701 1.865346 -0.436499 1.192218 0.941423 -19.459260 3.086346 -1.673461 0.513149 18.489752 -3.108806 -42.405315 1.883542 -68.141935 -0.250481 0.000000 0.000000 0.000000 -0.284463 1.539005 -0.778254 1.576728 4.726933 18.433267 3.075005 2.059121 -3.058849 7.729623 -12.153306 51.112969 0.669064 66.856610 0.699208 0.000000 0.000000 0.000000 
-1.799268 87.244438 6.149086 0.000000 0.000000 0.000000 31.581302 -4.357688 -5.089669 -64.678224 9.961632 -1.560503 60.235336 -6.916710 2.986291 4.898268 -2.195045 8.689359 -16.235998 -2.296743 1.822996 0.000000 0.000000 0.000000 30.707796 -4.651277 -4.930118 -20.093464 -14.008647 5.960440 31.758358 -4.166716 0.456284 -25.460517 1.466852 8.146590 -13.690161 -1.022403 1.458726 0.000000 0.000000 0.000000 29.584070 -1.115733 -5.679939 3.903071 3.656377 -0.680268 -0.032460 1.724524 -0.399146 0.421178 1.111539 -0.149069 0.000000 0.000000 0.000000 -0.307350 1.593042 -0.298501 -11.613411 -0.043532 2.943256 -10.791331 3.509750 -2.297402 0.000000 0.000000 0.000000 -0.955797 1.980065 -0.451574 1.210911 0.911882 -19.172066 2.601706 -1.400746 0.120913 18.374423 -3.322137 -42.952194 1.953382 -68.445339 -0.008764 0.000000 0.000000 0.000000 -0.209272 1.645504 -0.867504 1.590335 5.079134 18.330348 3.645011 2.482209 -3.096127 7.903822 -11.625969 51.042697 0.762898 68.099138 0.528462 0.000000 0.000000 0.000000 
-2.557183 85.743073 10.110008 0.000000 0.000000 0.000000 30.962706 -6.343075 -4.170770 -70.258147 10.991873 -0.181557 56.398901 -5.587831 1.479168 6.711658 -0.508967 8.547313 -10.157556 -1.467556 -0.049969 0.000000 0.000000 0.000000 31.578584 -4.551288 -4.845739 -16.443337 -12.118849 6.758351 33.223427 -5.574981 0.703017 -28.151630 -0.860493 6.964979 -11.430118 -0.653376 1.134719 0.000000 0.000000 0.000000 29.137638 -0.911222 -5.645881 4.694748 4.095343 -1.124484 0.175591 1.925964 -0.405959 0.616179 2.147215 0.149219 0.000000 0.000000 0.000000 -0.394990 1.719500 -0.418935 -11.919140 -0.116885 2.694816 -11.184104 3.090340 -2.093665 0.000000 0.000000 0.000000 -0.816831 2.152410 -0.484502 1.265410 0.994182 -18.698302 2.084787 -1.167570 -0.330844 18.113530 -3.692793 -43.882313 2.336943 -68.706335 0.692389 0.000000 0.000000 0.000000 -0.148801 1.817438 -0.974733 1.610089 5.612030 18.090436 4.092142 2.846019 -3.061776 9.000491 -11.159749 51.092609 0.770775 70.023215 0.366644 0.000000 0.000000 0.000000 
-3.681319 83.562469 14.419621 0.000000 0.000000 0.000000 30.439527 -7.654993 -3.103806 -76.092897 11.285498 0.490312 53.182220 -4.118366 0.436593 9.596952 2.095152 8.546439 -4.713602 -0.947487 -1.436796 0.000000 0.000000 0.000000 32.089294 -4.314036 -4.540373 -11.608433 -10.098071 7.360456 33.111845 -7.305505 0.500589 -33.219400 -2.742621 3.617712 -4.640415 0.324486 0.470753 0.000000 0.000000 0.000000 28.979526 -0.864612 -5.317589 5.415917 4.577519 -1.888701 0.365697 2.153152 -0.424745 0.750497 2.362638 0.463931 0.000000 0.000000 0.000000 -0.358192 1.940202 -0.549163 -12.274221 -0.107195 2.340894 -11.713816 2.562583 -1.865827 0.000000 0.000000 0.000000 -0.634819 2.358702 -0.499863 1.343817 1.102147 -18.112777 1.681505 -0.970004 -0.754920 17.728902 -3.975608 -45.141133 2.860557 -68.898550 1.649632 0.000000 0.000000 0.000000 -0.108180 2.022809 -1.065774 1.651798 6.175396 17.742817 4.214368 3.155696 -2.887086 10.888669 -10.925884 51.352029 0.741327 72.255321 0.178339 0.000000 0.000000 0.000000 
-4.906676 81.234131 19.097271 0.000000 0.000000 0.000000 30.149466 -8.173058 -2.150185 -80.181489 11.745518 0.091524 48.837277 -1.955724 -0.151892 10.607810 4.899266 10.361596 -3.128484 -0.832880 -1.417166 0.000000 0.000000 0.000000 32.292602 -4.279159 -3.854598 -6.690040 -8.470043 7.253039 30.983411 -7.858524 -0.215276 -36.901931 -3.315006 0.913441 -1.013703 1.612969 -0.336995 0.000000 0.000000 0.000000 29.311016 -0.795394 -4.668253 5.907723 5.013894 -2.989699 0.518668 2.399432 -0.436300 1.129996 2.108959 0.719944 0.000000 0.000000 0.000000 -0.264794 2.223244 -0.650813 -12.553510 -0.053329 1.984351 -12.231193 2.167404 -1.687521 0.000000 0.000000 0.000000 -0.469391 2.575280 -0.492920 1.415407 1.180690 -17.556651 1.383946 -0.885920 -1.205018 17.230257 -3.957489 -46.586606 3.270918 -69.136288 2.561432 0.000000 0.000000 0.000000 -0.111326 2.253077 -1.099887 1.707228 6.635331 17.383292 3.929674 3.673619 -2.641379 13.213950 -11.033300 51.880170 0.702129 74.478801 -0.024235 0.000000 0.000000 0.000000 
-6.302857 79.156898 23.903400 0.000000 0.000000 0.000000 30.214834 -7.920061 -1.414709 -81.757651 12.840652 -0.929720 43.300630 0.326808 -0.388543 9.383432 6.850302 13.499410 -4.919759 -0.985425 -0.576754 0.000000 0.000000 0.000000 32.399238 -4.078420 -3.056182 -2.290311 -7.568315 6.446147 27.362446 -6.656601 -1.337555 -36.110350 -2.730272 0.680632 -4.955172 2.944168 -0.783450 0.000000 0.000000 0.000000 29.988553 -0.930732 -3.791661 6.144514 5.297142 -4.386209 0.613809 2.636408 -0.445546 1.291777 1.347424 0.743061 0.000000 0.000000 0.000000 -0.202005 2.540630 -0.713137 -12.659698 0.027235 1.738510 -12.477250 2.176604 -1.545239 0.000000 0.000000 0.000000 -0.363687 2.799710 -0.480048 1.453203 1.177944 -17.111027 1.133819 -0.812445 -1.526209 16.599714 -3.470286 -48.046331 3.419117 -69.523034 3.203616 0.000000 0.000000 0.000000 -0.164816 2.506038 -1.062857 1.763654 6.864196 17.087938 3.265697 4.310046 -2.310431 15.529750 -11.481400 52.749742 0.674496 76.484602 -0.246056 0.000000 0.000000 0.000000 
-7.800282 77.593887 28.978062 0.000000 0.000000 0.000000 30.194781 -6.890252 -1.118641 -81.800873 14.207507 -1.829855 38.258191 1.785764 -0.499641 8.223395 7.368271 15.459011 -6.978907 -1.130574 0.001144 0.000000 0.000000 0.000000 32.187956 -4.014903 -2.312870 1.247889 -7.404798 5.497217 23.810140 -4.726296 -2.530542 -30.984146 -1.706104 1.398234 -15.306905 3.905960 -0.381057 0.000000 0.000000 0.000000 30.412329 -0.946739 -3.024890 6.224877 5.433098 -5.823685 0.639575 2.879539 -0.451528 1.368655 0.440401 0.505041 0.000000 0.000000 0.000000 -0.202120 2.870405 -0.758401 -12.686132 0.122863 1.645724 -12.295582 2.527285 -1.418393 0.000000 0.000000 0.000000 -0.353360 3.047519 -0.481931 1.444087 1.068269 -16.849412 0.952060 -0.790281 -1.632510 15.983423 -2.562289 -49.373522 3.142279 -70.033959 3.354999 0.000000 0.000000 0.000000 -0.283663 2.783516 -0.991915 1.786670 6.780408 16.890392 2.376556 5.002824 -1.971995 17.401266 -12.201189 53.864921 0.636581 78.182730 -0.417528 0.000000 0.000000 0.000000 
-9.106947 76.583817 34.028538 0.000000 0.000000 0.000000 29.894283 -5.641031 -1.302258 -80.974980 15.160107 -1.944910 35.153747 2.459374 -0.999554 8.180290 7.044856 16.057744 -8.226301 -1.194058 0.509125 0.000000 0.000000 0.000000 31.689428 -3.811470 -1.902760 3.132047 -8.219312 4.497430 23.150407 -2.954574 -3.014583 -22.918176 -0.821136 1.843136 -28.761213 3.788265 0.862742 0.000000 0.000000 0.000000 30.213461 -0.821626 -2.580344 6.259594 5.452599 -6.973962 0.656295 3.136623 -0.487686 1.440877 -0.160878 0.398729 0.000000 0.000000 0.000000 -0.272249 3.184479 -0.815783 -12.672043 0.160676 1.702563 -11.668953 3.005584 -1.331733 0.000000 0.000000 0.000000 -0.428950 3.301089 -0.526601 1.393649 0.867821 -16.815641 0.936392 -0.810434 -1.521771 15.516197 -1.494696 -50.384957 2.507539 -70.550499 3.007045 0.000000 0.000000 0.000000 -0.438474 3.076928 -0.913488 1.767343 6.391127 16.857855 1.723675 5.560595 -1.688207 18.499135 -13.010237 54.941335 0.618550 79.518264 -0.524716 0.000000 0.000000 0.000000 
-10.225479 76.080849 38.872093 0.000000 0.000000 0.000000 29.201903 -4.824680 -1.628176 -79.202115 15.209100 -1.445409 34.982224 2.645524 -1.921881 8.130495 6.521382 16.300868 -8.990523 -1.251599 1.504241 0.000000 0.000000 0.000000 30.602150 -2.891372 -2.117886 1.829505 -10.142203 2.516812 27.829594 -0.978282 -2.282683 -11.993667 0.056553 2.928595 -39.596693 2.503106 2.232681 0.000000 0.000000 0.000000 29.307505 -0.514649 -2.560741 6.349495 5.362270 -7.638637 0.670852 3.355282 -0.564806 1.352851 -0.651357 0.456717 0.000000 0.000000 0.000000 -0.373600 3.442963 -0.895575 -12.623842 0.162549 1.858841 -10.735758 3.486942 -1.307723 0.000000 0.000000 0.000000 -0.566287 3.526188 -0.623846 1.314591 0.589469 -16.939723 1.053144 -0.715340 -1.271533 15.317954 -0.575206 -50.979350 1.771087 -70.954314 2.359902 0.000000 0.000000 0.000000 -0.583997 3.345182 -0.847438 1.711396 5.820190 16.958127 1.685277 5.794674 -1.679702 18.650151 -13.763218 55.729429 0.613992 80.278109 -0.549897 0.000000 0.000000 0.000000 
